<?xml version="1.0" encoding="UTF-8" standalone="no"?>
<!-- Created with Inkscape (http://www.inkscape.org/) -->

<svg
   width="4.2333412mm"
   height="3.1750002mm"
   viewBox="0 0 4.2333412 3.1750002"
   version="1.1"
   id="svg1"
   xml:space="preserve"
   xmlns:inkscape="http://www.inkscape.org/namespaces/inkscape"
   xmlns:sodipodi="http://sodipodi.sourceforge.net/DTD/sodipodi-0.dtd"
   xmlns="http://www.w3.org/2000/svg"
   xmlns:svg="http://www.w3.org/2000/svg"><sodipodi:namedview
     id="namedview1"
     pagecolor="#ffffff"
     bordercolor="#000000"
     borderopacity="0.25"
     inkscape:showpageshadow="2"
     inkscape:pageopacity="0.0"
     inkscape:pagecheckerboard="0"
     inkscape:deskcolor="#d1d1d1"
     inkscape:document-units="mm" /><defs
     id="defs1" /><g
     inkscape:label="Camada 1"
     inkscape:groupmode="layer"
     id="layer1"
     transform="translate(56.273465,-126.21563)"><path
       opacity="1"
       fill="#1E3050"
       d="m -55.744296,126.61251 c -0.0728,0 -0.13229,0.0595 -0.13229,0.1323 v 0.18272 l 1.42627,1.17079 c 0.17115,0.14056 0.41672,0.14056 0.58787,0 l 1.42544,-1.17079 v -0.18272 c 0,-0.0728 -0.0595,-0.1323 -0.13229,-0.1323 z m -0.13229,0.82848 v 1.42048 c 0,0.0728 0.0595,0.1323 0.13229,0.1323 h 3.175 c 0.0728,0 0.13229,-0.0595 0.13229,-0.1323 v -1.42048 l -1.17409,0.96408 c -0.3175,0.26045 -0.77473,0.26045 -1.0914,0 z m -0.39688,-0.69618 c 0,-0.29187 0.2373,-0.52917 0.52917,-0.52917 h 3.175 c 0.29187,0 0.52917,0.2373 0.52917,0.52917 v 2.11666 c 0,0.29187 -0.2373,0.52917 -0.52917,0.52917 h -3.175 c -0.29187,0 -0.52917,-0.2373 -0.52917,-0.52917 z"
       id="path1"
       style="fill:#000000;stroke-width:0.00826823" /><path
       fill="#ffffff"
       d="m -110.47168,100.93763 c -2.03729,-4.921249 -7.40833,-7.540624 -12.54125,-6.138332 l -23.28333,6.350002 c -4.60375,1.27 -7.80521,5.45041 -7.80521,10.21291 0,65.45792 53.07541,118.53334 118.533332,118.53334 4.7625,0 8.94292,-3.20146 10.21292,-7.80521 l 6.35,-23.28334 c 1.40229,-5.13291 -1.21708,-10.50396 -6.13833,-12.54125 l -25.4,-10.58333 c -4.31272,-1.79917 -9.31334,-0.55563 -12.25022,3.06917 l -10.68916,13.04395 c -18.62667,-8.81062 -33.707922,-23.89187 -42.518542,-42.51854 l 13.04396,-10.66271 c 3.624787,-2.96333 4.868329,-7.9375 3.069162,-12.2502 l -10.583332,-25.4 z"
       id="path1-7"
       style="fill:#000000;stroke-width:0.264583"
       inkscape:export-filename="phone-solid-black.svg"
       inkscape:export-xdpi="96"
       inkscape:export-ydpi="96" /></g></svg>
