<?xml version="1.0" encoding="UTF-8" standalone="no"?>
<!-- Created with Inkscape (http://www.inkscape.org/) -->

<svg
   width="4.2333412mm"
   height="4.2178788mm"
   viewBox="0 0 4.2333412 4.2178788"
   version="1.1"
   id="svg1"
   xml:space="preserve"
   xmlns:inkscape="http://www.inkscape.org/namespaces/inkscape"
   xmlns:sodipodi="http://sodipodi.sourceforge.net/DTD/sodipodi-0.dtd"
   xmlns="http://www.w3.org/2000/svg"
   xmlns:svg="http://www.w3.org/2000/svg"><sodipodi:namedview
     id="namedview1"
     pagecolor="#ffffff"
     bordercolor="#000000"
     borderopacity="0.25"
     inkscape:showpageshadow="2"
     inkscape:pageopacity="0.0"
     inkscape:pagecheckerboard="0"
     inkscape:deskcolor="#d1d1d1"
     inkscape:document-units="mm" /><defs
     id="defs1" /><g
     inkscape:label="Camada 1"
     inkscape:groupmode="layer"
     id="layer1"
     transform="translate(61.487146,-131.45681)"><path
       opacity="1"
       fill="#1E3050"
       d="m -57.253807,133.57348 c 0,-1.16912 -0.94754,-2.11666 -2.11667,-2.11666 -1.16913,0 -2.11667,0.94754 -2.11667,2.11666 0,0.99219 0.68379,1.82563 1.60569,2.05466 v -1.40808 h -0.43656 v -0.64658 h 0.43656 v -0.27863 c 0,-0.72017 0.32577,-1.0542 1.03353,-1.0542 0.13395,0 0.36546,0.0265 0.46054,0.0529 v 0.58539 c -0.0496,-0.005 -0.13642,-0.008 -0.24474,-0.008 -0.34726,0 -0.48121,0.13147 -0.48121,0.47295 v 0.22985 h 0.69123 l -0.11907,0.64658 h -0.57298 v 1.45438 c 1.04841,-0.1265 1.86035,-1.01864 1.86035,-2.10096 z"
       id="path1-5"
       style="fill:#000000;stroke-width:0.00826823"
       inkscape:export-filename="facebook-black.svg"
       inkscape:export-xdpi="96"
       inkscape:export-ydpi="96" /><path
       fill="#ffffff"
       d="m -110.47168,100.93763 c -2.03729,-4.921249 -7.40833,-7.540624 -12.54125,-6.138332 l -23.28333,6.350002 c -4.60375,1.27 -7.80521,5.45041 -7.80521,10.21291 0,65.45792 53.07541,118.53334 118.533332,118.53334 4.7625,0 8.94292,-3.20146 10.21292,-7.80521 l 6.35,-23.28334 c 1.40229,-5.13291 -1.21708,-10.50396 -6.13833,-12.54125 l -25.4,-10.58333 c -4.31272,-1.79917 -9.31334,-0.55563 -12.25022,3.06917 l -10.68916,13.04395 c -18.62667,-8.81062 -33.707922,-23.89187 -42.518542,-42.51854 l 13.04396,-10.66271 c 3.624787,-2.96333 4.868329,-7.9375 3.069162,-12.2502 l -10.583332,-25.4 z"
       id="path1-7"
       style="fill:#000000;stroke-width:0.264583"
       inkscape:export-filename="phone-solid-black.svg"
       inkscape:export-xdpi="96"
       inkscape:export-ydpi="96" /></g></svg>
