<?xml version="1.0" encoding="UTF-8" standalone="no"?>
<!-- Created with Inkscape (http://www.inkscape.org/) -->

<svg
   width="3.7062902mm"
   height="3.7054586mm"
   viewBox="0 0 3.7062902 3.7054586"
   version="1.1"
   id="svg1"
   xml:space="preserve"
   xmlns:inkscape="http://www.inkscape.org/namespaces/inkscape"
   xmlns:sodipodi="http://sodipodi.sourceforge.net/DTD/sodipodi-0.dtd"
   xmlns="http://www.w3.org/2000/svg"
   xmlns:svg="http://www.w3.org/2000/svg"><sodipodi:namedview
     id="namedview1"
     pagecolor="#ffffff"
     bordercolor="#000000"
     borderopacity="0.25"
     inkscape:showpageshadow="2"
     inkscape:pageopacity="0.0"
     inkscape:pagecheckerboard="0"
     inkscape:deskcolor="#d1d1d1"
     inkscape:document-units="mm" /><defs
     id="defs1" /><g
     inkscape:label="Camada 1"
     inkscape:groupmode="layer"
     id="layer1"
     transform="translate(62.931024,-124.12104)"><path
       opacity="1"
       fill="#1E3050"
       d="m -61.077461,125.02376 c -0.52586,0 -0.95002,0.42416 -0.95002,0.95002 0,0.52586 0.42416,0.95002 0.95002,0.95002 0.52585,0 0.95001,-0.42416 0.95001,-0.95002 0,-0.52586 -0.42416,-0.95002 -0.95001,-0.95002 z m 0,1.56766 c -0.33983,0 -0.61764,-0.27699 -0.61764,-0.61764 0,-0.34065 0.27698,-0.61764 0.61764,-0.61764 0.34065,0 0.61763,0.27699 0.61763,0.61764 0,0.34065 -0.27781,0.61764 -0.61763,0.61764 z m 1.21046,-1.60652 c 0,0.1232 -0.0992,0.22159 -0.22158,0.22159 -0.1232,0 -0.22159,-0.0992 -0.22159,-0.22159 0,-0.12237 0.0992,-0.22159 0.22159,-0.22159 0.12237,0 0.22158,0.0992 0.22158,0.22159 z m 0.62922,0.2249 c -0.0141,-0.29683 -0.0819,-0.55976 -0.29931,-0.77639 -0.21663,-0.21663 -0.47956,-0.28443 -0.77639,-0.29931 -0.30593,-0.0174 -1.22287,-0.0174 -1.5288,0 -0.296,0.0141 -0.55893,0.0818 -0.77638,0.29848 -0.21746,0.21663 -0.28443,0.47956 -0.29931,0.77639 -0.0174,0.30592 -0.0174,1.22287 0,1.52879 0.0141,0.29683 0.0819,0.55976 0.29931,0.77639 0.21745,0.21663 0.47955,0.28443 0.77638,0.29931 0.30593,0.0174 1.22287,0.0174 1.5288,0 0.29683,-0.014 0.55976,-0.0818 0.77639,-0.29931 0.21662,-0.21663 0.28442,-0.47956 0.29931,-0.77639 0.0174,-0.30592 0.0174,-1.22204 0,-1.52796 z m -0.39523,1.85621 c -0.0645,0.16206 -0.18934,0.28691 -0.35222,0.35223 -0.24391,0.0967 -0.82269,0.0744 -1.09223,0.0744 -0.26955,0 -0.84915,0.0215 -1.09224,-0.0744 -0.16206,-0.0645 -0.28691,-0.18934 -0.35222,-0.35223 -0.0967,-0.24391 -0.0744,-0.82269 -0.0744,-1.09223 0,-0.26954 -0.0215,-0.84915 0.0744,-1.09223 0.0645,-0.16206 0.18934,-0.28691 0.35222,-0.35223 0.24391,-0.0967 0.82269,-0.0744 1.09224,-0.0744 0.26954,0 0.84914,-0.0215 1.09223,0.0744 0.16206,0.0645 0.28691,0.18934 0.35222,0.35223 0.0967,0.24391 0.0744,0.82269 0.0744,1.09223 0,0.26954 0.0223,0.84915 -0.0744,1.09223 z"
       id="path1-3"
       style="fill:#000000;stroke-width:0.00826823" /><path
       fill="#ffffff"
       d="m -110.47168,100.93763 c -2.03729,-4.921249 -7.40833,-7.540624 -12.54125,-6.138332 l -23.28333,6.350002 c -4.60375,1.27 -7.80521,5.45041 -7.80521,10.21291 0,65.45792 53.07541,118.53334 118.533332,118.53334 4.7625,0 8.94292,-3.20146 10.21292,-7.80521 l 6.35,-23.28334 c 1.40229,-5.13291 -1.21708,-10.50396 -6.13833,-12.54125 l -25.4,-10.58333 c -4.31272,-1.79917 -9.31334,-0.55563 -12.25022,3.06917 l -10.68916,13.04395 c -18.62667,-8.81062 -33.707922,-23.89187 -42.518542,-42.51854 l 13.04396,-10.66271 c 3.624787,-2.96333 4.868329,-7.9375 3.069162,-12.2502 l -10.583332,-25.4 z"
       id="path1-7"
       style="fill:#000000;stroke-width:0.264583"
       inkscape:export-filename="phone-solid-black.svg"
       inkscape:export-xdpi="96"
       inkscape:export-ydpi="96" /></g></svg>
