<?xml version="1.0" encoding="UTF-8" standalone="no"?>
<!-- Created with Inkscape (http://www.inkscape.org/) -->

<svg
   width="135.47263mm"
   height="135.47263mm"
   viewBox="0 0 135.47263 135.47263"
   version="1.1"
   id="svg1"
   xml:space="preserve"
   xmlns:inkscape="http://www.inkscape.org/namespaces/inkscape"
   xmlns:sodipodi="http://sodipodi.sourceforge.net/DTD/sodipodi-0.dtd"
   xmlns="http://www.w3.org/2000/svg"
   xmlns:svg="http://www.w3.org/2000/svg"><sodipodi:namedview
     id="namedview1"
     pagecolor="#ffffff"
     bordercolor="#000000"
     borderopacity="0.25"
     inkscape:showpageshadow="2"
     inkscape:pageopacity="0.0"
     inkscape:pagecheckerboard="0"
     inkscape:deskcolor="#d1d1d1"
     inkscape:document-units="mm" /><defs
     id="defs1" /><g
     inkscape:label="Camada 1"
     inkscape:groupmode="layer"
     id="layer1"
     transform="translate(154.10146,-94.422918)"><path
       opacity="1"
       fill="#1E3050"
       d="m -55.744296,126.61251 c -0.0728,0 -0.13229,0.0595 -0.13229,0.1323 v 0.18272 l 1.42627,1.17079 c 0.17115,0.14056 0.41672,0.14056 0.58787,0 l 1.42544,-1.17079 v -0.18272 c 0,-0.0728 -0.0595,-0.1323 -0.13229,-0.1323 z m -0.13229,0.82848 v 1.42048 c 0,0.0728 0.0595,0.1323 0.13229,0.1323 h 3.175 c 0.0728,0 0.13229,-0.0595 0.13229,-0.1323 v -1.42048 l -1.17409,0.96408 c -0.3175,0.26045 -0.77473,0.26045 -1.0914,0 z m -0.39688,-0.69618 c 0,-0.29187 0.2373,-0.52917 0.52917,-0.52917 h 3.175 c 0.29187,0 0.52917,0.2373 0.52917,0.52917 v 2.11666 c 0,0.29187 -0.2373,0.52917 -0.52917,0.52917 h -3.175 c -0.29187,0 -0.52917,-0.2373 -0.52917,-0.52917 z"
       id="path1"
       style="fill:#000000;stroke-width:0.00826823" /><path
       opacity="1"
       fill="#1E3050"
       d="m -57.253807,133.57348 c 0,-1.16912 -0.94754,-2.11666 -2.11667,-2.11666 -1.16913,0 -2.11667,0.94754 -2.11667,2.11666 0,0.99219 0.68379,1.82563 1.60569,2.05466 v -1.40808 h -0.43656 v -0.64658 h 0.43656 v -0.27863 c 0,-0.72017 0.32577,-1.0542 1.03353,-1.0542 0.13395,0 0.36546,0.0265 0.46054,0.0529 v 0.58539 c -0.0496,-0.005 -0.13642,-0.008 -0.24474,-0.008 -0.34726,0 -0.48121,0.13147 -0.48121,0.47295 v 0.22985 h 0.69123 l -0.11907,0.64658 h -0.57298 v 1.45438 c 1.04841,-0.1265 1.86035,-1.01864 1.86035,-2.10096 z"
       id="path1-5"
       style="fill:#000000;stroke-width:0.00826823" /><path
       opacity="1"
       fill="#1E3050"
       d="m -61.077461,125.02376 c -0.52586,0 -0.95002,0.42416 -0.95002,0.95002 0,0.52586 0.42416,0.95002 0.95002,0.95002 0.52585,0 0.95001,-0.42416 0.95001,-0.95002 0,-0.52586 -0.42416,-0.95002 -0.95001,-0.95002 z m 0,1.56766 c -0.33983,0 -0.61764,-0.27699 -0.61764,-0.61764 0,-0.34065 0.27698,-0.61764 0.61764,-0.61764 0.34065,0 0.61763,0.27699 0.61763,0.61764 0,0.34065 -0.27781,0.61764 -0.61763,0.61764 z m 1.21046,-1.60652 c 0,0.1232 -0.0992,0.22159 -0.22158,0.22159 -0.1232,0 -0.22159,-0.0992 -0.22159,-0.22159 0,-0.12237 0.0992,-0.22159 0.22159,-0.22159 0.12237,0 0.22158,0.0992 0.22158,0.22159 z m 0.62922,0.2249 c -0.0141,-0.29683 -0.0819,-0.55976 -0.29931,-0.77639 -0.21663,-0.21663 -0.47956,-0.28443 -0.77639,-0.29931 -0.30593,-0.0174 -1.22287,-0.0174 -1.5288,0 -0.296,0.0141 -0.55893,0.0818 -0.77638,0.29848 -0.21746,0.21663 -0.28443,0.47956 -0.29931,0.77639 -0.0174,0.30592 -0.0174,1.22287 0,1.52879 0.0141,0.29683 0.0819,0.55976 0.29931,0.77639 0.21745,0.21663 0.47955,0.28443 0.77638,0.29931 0.30593,0.0174 1.22287,0.0174 1.5288,0 0.29683,-0.014 0.55976,-0.0818 0.77639,-0.29931 0.21662,-0.21663 0.28442,-0.47956 0.29931,-0.77639 0.0174,-0.30592 0.0174,-1.22204 0,-1.52796 z m -0.39523,1.85621 c -0.0645,0.16206 -0.18934,0.28691 -0.35222,0.35223 -0.24391,0.0967 -0.82269,0.0744 -1.09223,0.0744 -0.26955,0 -0.84915,0.0215 -1.09224,-0.0744 -0.16206,-0.0645 -0.28691,-0.18934 -0.35222,-0.35223 -0.0967,-0.24391 -0.0744,-0.82269 -0.0744,-1.09223 0,-0.26954 -0.0215,-0.84915 0.0744,-1.09223 0.0645,-0.16206 0.18934,-0.28691 0.35222,-0.35223 0.24391,-0.0967 0.82269,-0.0744 1.09224,-0.0744 0.26954,0 0.84914,-0.0215 1.09223,0.0744 0.16206,0.0645 0.28691,0.18934 0.35222,0.35223 0.0967,0.24391 0.0744,0.82269 0.0744,1.09223 0,0.26954 0.0223,0.84915 -0.0744,1.09223 z"
       id="path1-3"
       style="fill:#000000;stroke-width:0.00826823" /><path
       fill="#ffffff"
       d="m -110.47168,100.93763 c -2.03729,-4.921249 -7.40833,-7.540624 -12.54125,-6.138332 l -23.28333,6.350002 c -4.60375,1.27 -7.80521,5.45041 -7.80521,10.21291 0,65.45792 53.07541,118.53334 118.533332,118.53334 4.7625,0 8.94292,-3.20146 10.21292,-7.80521 l 6.35,-23.28334 c 1.40229,-5.13291 -1.21708,-10.50396 -6.13833,-12.54125 l -25.4,-10.58333 c -4.31272,-1.79917 -9.31334,-0.55563 -12.25022,3.06917 l -10.68916,13.04395 c -18.62667,-8.81062 -33.707922,-23.89187 -42.518542,-42.51854 l 13.04396,-10.66271 c 3.624787,-2.96333 4.868329,-7.9375 3.069162,-12.2502 l -10.583332,-25.4 z"
       id="path1-7"
       style="fill:#000000;stroke-width:0.264583"
       inkscape:export-filename="phone-solid-black.svg"
       inkscape:export-xdpi="96"
       inkscape:export-ydpi="96" /><path
       opacity="1"
       fill="#1E3050"
       d="m -42.67519,126.54946 c -0.34644,-0.34727 -0.80781,-0.53827 -1.29811,-0.53827 -1.01203,0 -1.83555,0.82352 -1.83555,1.83555 0,0.32329 0.0843,0.63914 0.24474,0.91778 l -0.26045,0.95084 0.97317,-0.25549 c 0.26789,0.14635 0.56968,0.22325 0.87726,0.22325 h 8.3e-4 c 1.0112,0 1.85291,-0.82352 1.85291,-1.83555 0,-0.49031 -0.20836,-0.95085 -0.5548,-1.29811 z m -1.29811,2.82442 c -0.27451,0 -0.54323,-0.0736 -0.77722,-0.21249 l -0.0554,-0.0331 -0.57713,0.15131 0.15379,-0.56307 -0.0364,-0.0579 c -0.15296,-0.24308 -0.23316,-0.52338 -0.23316,-0.81194 0,-0.84088 0.68461,-1.52549 1.52631,-1.52549 0.40763,0 0.79045,0.15875 1.07818,0.44731 0.28774,0.28857 0.46468,0.67138 0.46385,1.07901 0,0.8417 -0.70197,1.52631 -1.54285,1.52631 z m 0.83674,-1.14267 c -0.0455,-0.0231 -0.2712,-0.13394 -0.31336,-0.14882 -0.0422,-0.0157 -0.0728,-0.0231 -0.10336,0.0232 -0.0306,0.0463 -0.11823,0.14883 -0.14552,0.18024 -0.0265,0.0306 -0.0537,0.0347 -0.0992,0.0116 -0.26954,-0.13477 -0.44648,-0.24061 -0.62425,-0.5457 -0.0471,-0.081 0.0471,-0.0752 0.13477,-0.25053 0.0149,-0.0306 0.007,-0.0571 -0.004,-0.0802 -0.0116,-0.0232 -0.10335,-0.24888 -0.14139,-0.34065 -0.0372,-0.0893 -0.0752,-0.0769 -0.10335,-0.0786 -0.0265,-0.002 -0.0571,-0.002 -0.0876,-0.002 -0.0306,0 -0.0802,0.0116 -0.12237,0.057 -0.0422,0.0463 -0.16041,0.1571 -0.16041,0.38282 0,0.22572 0.16454,0.444 0.18687,0.4746 0.0232,0.0306 0.32328,0.49361 0.78382,0.69287 0.29105,0.12568 0.40515,0.13643 0.55067,0.11493 0.0885,-0.0132 0.2712,-0.11079 0.30923,-0.21828 0.038,-0.10749 0.038,-0.19926 0.0265,-0.21828 -0.0107,-0.0207 -0.0413,-0.0323 -0.0868,-0.0546 z"
       id="path1-9"
       style="fill:#000000;stroke:#ffffff;stroke-width:0.00826823" /></g></svg>
