<?xml version="1.0" encoding="UTF-8" standalone="no"?>
<!-- Created with Inkscape (http://www.inkscape.org/) -->

<svg
   width="3.7141829mm"
   height="3.7141225mm"
   viewBox="0 0 3.7141829 3.7141225"
   version="1.1"
   id="svg1"
   xml:space="preserve"
   xmlns:inkscape="http://www.inkscape.org/namespaces/inkscape"
   xmlns:sodipodi="http://sodipodi.sourceforge.net/DTD/sodipodi-0.dtd"
   xmlns="http://www.w3.org/2000/svg"
   xmlns:svg="http://www.w3.org/2000/svg"><sodipodi:namedview
     id="namedview1"
     pagecolor="#ffffff"
     bordercolor="#000000"
     borderopacity="0.25"
     inkscape:showpageshadow="2"
     inkscape:pageopacity="0.0"
     inkscape:pagecheckerboard="0"
     inkscape:deskcolor="#d1d1d1"
     inkscape:document-units="mm" /><defs
     id="defs1" /><g
     inkscape:label="Camada 1"
     inkscape:groupmode="layer"
     id="layer1"
     transform="translate(45.830438,-126.00705)"><path
       fill="#ffffff"
       d="m -110.47168,100.93763 c -2.03729,-4.921249 -7.40833,-7.540624 -12.54125,-6.138332 l -23.28333,6.350002 c -4.60375,1.27 -7.80521,5.45041 -7.80521,10.21291 0,65.45792 53.07541,118.53334 118.533332,118.53334 4.7625,0 8.94292,-3.20146 10.21292,-7.80521 l 6.35,-23.28334 c 1.40229,-5.13291 -1.21708,-10.50396 -6.13833,-12.54125 l -25.4,-10.58333 c -4.31272,-1.79917 -9.31334,-0.55563 -12.25022,3.06917 l -10.68916,13.04395 c -18.62667,-8.81062 -33.707922,-23.89187 -42.518542,-42.51854 l 13.04396,-10.66271 c 3.624787,-2.96333 4.868329,-7.9375 3.069162,-12.2502 l -10.583332,-25.4 z"
       id="path1-7"
       style="fill:#000000;stroke-width:0.264583"
       inkscape:export-filename="phone-solid-black.svg"
       inkscape:export-xdpi="96"
       inkscape:export-ydpi="96" /><path
       opacity="1"
       fill="#1E3050"
       d="m -42.67519,126.54946 c -0.34644,-0.34727 -0.80781,-0.53827 -1.29811,-0.53827 -1.01203,0 -1.83555,0.82352 -1.83555,1.83555 0,0.32329 0.0843,0.63914 0.24474,0.91778 l -0.26045,0.95084 0.97317,-0.25549 c 0.26789,0.14635 0.56968,0.22325 0.87726,0.22325 h 8.3e-4 c 1.0112,0 1.85291,-0.82352 1.85291,-1.83555 0,-0.49031 -0.20836,-0.95085 -0.5548,-1.29811 z m -1.29811,2.82442 c -0.27451,0 -0.54323,-0.0736 -0.77722,-0.21249 l -0.0554,-0.0331 -0.57713,0.15131 0.15379,-0.56307 -0.0364,-0.0579 c -0.15296,-0.24308 -0.23316,-0.52338 -0.23316,-0.81194 0,-0.84088 0.68461,-1.52549 1.52631,-1.52549 0.40763,0 0.79045,0.15875 1.07818,0.44731 0.28774,0.28857 0.46468,0.67138 0.46385,1.07901 0,0.8417 -0.70197,1.52631 -1.54285,1.52631 z m 0.83674,-1.14267 c -0.0455,-0.0231 -0.2712,-0.13394 -0.31336,-0.14882 -0.0422,-0.0157 -0.0728,-0.0231 -0.10336,0.0232 -0.0306,0.0463 -0.11823,0.14883 -0.14552,0.18024 -0.0265,0.0306 -0.0537,0.0347 -0.0992,0.0116 -0.26954,-0.13477 -0.44648,-0.24061 -0.62425,-0.5457 -0.0471,-0.081 0.0471,-0.0752 0.13477,-0.25053 0.0149,-0.0306 0.007,-0.0571 -0.004,-0.0802 -0.0116,-0.0232 -0.10335,-0.24888 -0.14139,-0.34065 -0.0372,-0.0893 -0.0752,-0.0769 -0.10335,-0.0786 -0.0265,-0.002 -0.0571,-0.002 -0.0876,-0.002 -0.0306,0 -0.0802,0.0116 -0.12237,0.057 -0.0422,0.0463 -0.16041,0.1571 -0.16041,0.38282 0,0.22572 0.16454,0.444 0.18687,0.4746 0.0232,0.0306 0.32328,0.49361 0.78382,0.69287 0.29105,0.12568 0.40515,0.13643 0.55067,0.11493 0.0885,-0.0132 0.2712,-0.11079 0.30923,-0.21828 0.038,-0.10749 0.038,-0.19926 0.0265,-0.21828 -0.0107,-0.0207 -0.0413,-0.0323 -0.0868,-0.0546 z"
       id="path1-9"
       style="fill:#000000;stroke:#ffffff;stroke-width:0.00826823" /></g></svg>
